<svg xmlns="http://www.w3.org/2000/svg" viewBox="0 0 1172.0 1380" width="1172.0" height="1380" font-family="Segoe UI, Helvetica, Arial, sans-serif"><rect x="0" y="0" width="1172.0" height="1380" fill="#FFFFFF"/><defs><marker id="arrow" markerWidth="9" markerHeight="9" refX="6" refY="3" orient="auto" markerUnits="strokeWidth"><path d="M0,0 L6,3 L0,6 Z" fill="#78909C"/></marker><clipPath id="clip_1"><rect x="335.0" y="36" width="190" height="42" rx="8" ry="8"/></clipPath><clipPath id="clip_2"><rect x="335.0" y="104" width="190" height="40" rx="8" ry="8"/></clipPath><clipPath id="clip_3"><rect x="119.0" y="192" width="142" height="99" rx="8" ry="8"/></clipPath><clipPath id="clip_4"><rect x="279.0" y="192" width="142" height="99" rx="8" ry="8"/></clipPath><clipPath id="clip_5"><rect x="439.0" y="192" width="142" height="99" rx="8" ry="8"/></clipPath><clipPath id="clip_6"><rect x="599.0" y="192" width="142" height="99" rx="8" ry="8"/></clipPath><clipPath id="clip_7"><rect x="119.0" y="333" width="622" height="74" rx="8" ry="8"/></clipPath><clipPath id="clip_8"><rect x="119.0" y="429" width="622" height="198" rx="8" ry="8"/></clipPath><clipPath id="clip_9"><rect x="771.0" y="447" width="128" height="40" rx="8" ry="8"/></clipPath><clipPath id="clip_10"><rect x="320.0" y="691" width="220" height="72" rx="8" ry="8"/></clipPath><clipPath id="clip_11"><rect x="119.0" y="793" width="142" height="99" rx="8" ry="8"/></clipPath><clipPath id="clip_12"><rect x="279.0" y="793" width="142" height="99" rx="8" ry="8"/></clipPath><clipPath id="clip_13"><rect x="439.0" y="793" width="142" height="99" rx="8" ry="8"/></clipPath><clipPath id="clip_14"><rect x="599.0" y="793" width="142" height="99" rx="8" ry="8"/></clipPath><clipPath id="clip_15"><rect x="119.0" y="932" width="622" height="108" rx="8" ry="8"/></clipPath><clipPath id="clip_fc3_softmax"><rect x="335.0" y="1255" width="190" height="70" rx="8" ry="8"/></clipPath></defs><g clip-path="url(#clip_1)">
<rect x="335.0" y="36" width="190" height="42" fill="#ECEFF1"/>
</g>
<rect x="335.0" y="36" width="190" height="42" rx="8" ry="8" fill="none" stroke="#37474F" stroke-width="1.3" opacity="0.55"/>
<text x="430.0" y="62.0" text-anchor="middle" font-family="Segoe UI, Helvetica, Arial, sans-serif" font-size="16" font-weight="600" fill="#263238">3-D input</text>
<line x1="430" y1="78" x2="430" y2="104" stroke="#78909C" stroke-width="1.6" marker-end="url(#arrow)"/>
<g clip-path="url(#clip_2)">
<rect x="335.0" y="104" width="190" height="40" fill="#BBDEFB"/>
</g>
<rect x="335.0" y="104" width="190" height="40" rx="8" ry="8" fill="none" stroke="#37474F" stroke-width="1.3" opacity="0.55"/>
<text x="430.0" y="129.0" text-anchor="middle" font-family="Segoe UI, Helvetica, Arial, sans-serif" font-size="16" font-weight="600" fill="#0D47A1">conv</text>
<line x1="430" y1="144" x2="430" y2="178" stroke="#78909C" stroke-width="1.6" marker-end="url(#arrow)"/>
<line x1="430" y1="178" x2="430" y2="178" stroke="#78909C" stroke-width="1.6"/>
<line x1="190.0" y1="178" x2="670.0" y2="178" stroke="#78909C" stroke-width="1.6"/>
<line x1="190.0" y1="178" x2="190.0" y2="192" stroke="#78909C" stroke-width="1.6" marker-end="url(#arrow)"/>
<line x1="350.0" y1="178" x2="350.0" y2="192" stroke="#78909C" stroke-width="1.6" marker-end="url(#arrow)"/>
<line x1="510.0" y1="178" x2="510.0" y2="192" stroke="#78909C" stroke-width="1.6" marker-end="url(#arrow)"/>
<line x1="670.0" y1="178" x2="670.0" y2="192" stroke="#78909C" stroke-width="1.6" marker-end="url(#arrow)"/>
<g clip-path="url(#clip_3)">
<rect x="119.0" y="192" width="142" height="33" fill="#90CAF9"/>
<rect x="119.0" y="225" width="142" height="33" fill="#FFF3CD"/>
<rect x="119.0" y="258" width="142" height="33" fill="#DCEDC8"/>
</g>
<line x1="119.0" y1="225" x2="261.0" y2="225" stroke="rgba(0,0,0,0.18)" stroke-width="1"/>
<line x1="119.0" y1="258" x2="261.0" y2="258" stroke="rgba(0,0,0,0.18)" stroke-width="1"/>
<rect x="119.0" y="192" width="142" height="99" rx="8" ry="8" fill="none" stroke="#37474F" stroke-width="1.3" opacity="0.55"/>
<text x="190.0" y="213.5" text-anchor="middle" font-family="Segoe UI, Helvetica, Arial, sans-serif" font-size="14" font-weight="600" fill="#0D47A1">atrous(1)</text>
<text x="190.0" y="246.5" text-anchor="middle" font-family="Segoe UI, Helvetica, Arial, sans-serif" font-size="14" font-weight="600" fill="#6B4F00">BN</text>
<text x="190.0" y="279.5" text-anchor="middle" font-family="Segoe UI, Helvetica, Arial, sans-serif" font-size="14" font-weight="600" fill="#33691E">ReLU</text>
<g clip-path="url(#clip_4)">
<rect x="279.0" y="192" width="142" height="33" fill="#90CAF9"/>
<rect x="279.0" y="225" width="142" height="33" fill="#FFF3CD"/>
<rect x="279.0" y="258" width="142" height="33" fill="#DCEDC8"/>
</g>
<line x1="279.0" y1="225" x2="421.0" y2="225" stroke="rgba(0,0,0,0.18)" stroke-width="1"/>
<line x1="279.0" y1="258" x2="421.0" y2="258" stroke="rgba(0,0,0,0.18)" stroke-width="1"/>
<rect x="279.0" y="192" width="142" height="99" rx="8" ry="8" fill="none" stroke="#37474F" stroke-width="1.3" opacity="0.55"/>
<text x="350.0" y="213.5" text-anchor="middle" font-family="Segoe UI, Helvetica, Arial, sans-serif" font-size="14" font-weight="600" fill="#0D47A1">atrous(6)</text>
<text x="350.0" y="246.5" text-anchor="middle" font-family="Segoe UI, Helvetica, Arial, sans-serif" font-size="14" font-weight="600" fill="#6B4F00">BN</text>
<text x="350.0" y="279.5" text-anchor="middle" font-family="Segoe UI, Helvetica, Arial, sans-serif" font-size="14" font-weight="600" fill="#33691E">ReLU</text>
<g clip-path="url(#clip_5)">
<rect x="439.0" y="192" width="142" height="33" fill="#90CAF9"/>
<rect x="439.0" y="225" width="142" height="33" fill="#FFF3CD"/>
<rect x="439.0" y="258" width="142" height="33" fill="#DCEDC8"/>
</g>
<line x1="439.0" y1="225" x2="581.0" y2="225" stroke="rgba(0,0,0,0.18)" stroke-width="1"/>
<line x1="439.0" y1="258" x2="581.0" y2="258" stroke="rgba(0,0,0,0.18)" stroke-width="1"/>
<rect x="439.0" y="192" width="142" height="99" rx="8" ry="8" fill="none" stroke="#37474F" stroke-width="1.3" opacity="0.55"/>
<text x="510.0" y="213.5" text-anchor="middle" font-family="Segoe UI, Helvetica, Arial, sans-serif" font-size="14" font-weight="600" fill="#0D47A1">atrous(12)</text>
<text x="510.0" y="246.5" text-anchor="middle" font-family="Segoe UI, Helvetica, Arial, sans-serif" font-size="14" font-weight="600" fill="#6B4F00">BN</text>
<text x="510.0" y="279.5" text-anchor="middle" font-family="Segoe UI, Helvetica, Arial, sans-serif" font-size="14" font-weight="600" fill="#33691E">ReLU</text>
<g clip-path="url(#clip_6)">
<rect x="599.0" y="192" width="142" height="33" fill="#90CAF9"/>
<rect x="599.0" y="225" width="142" height="33" fill="#FFF3CD"/>
<rect x="599.0" y="258" width="142" height="33" fill="#DCEDC8"/>
</g>
<line x1="599.0" y1="225" x2="741.0" y2="225" stroke="rgba(0,0,0,0.18)" stroke-width="1"/>
<line x1="599.0" y1="258" x2="741.0" y2="258" stroke="rgba(0,0,0,0.18)" stroke-width="1"/>
<rect x="599.0" y="192" width="142" height="99" rx="8" ry="8" fill="none" stroke="#37474F" stroke-width="1.3" opacity="0.55"/>
<text x="670.0" y="213.5" text-anchor="middle" font-family="Segoe UI, Helvetica, Arial, sans-serif" font-size="14" font-weight="600" fill="#0D47A1">atrous(18)</text>
<text x="670.0" y="246.5" text-anchor="middle" font-family="Segoe UI, Helvetica, Arial, sans-serif" font-size="14" font-weight="600" fill="#6B4F00">BN</text>
<text x="670.0" y="279.5" text-anchor="middle" font-family="Segoe UI, Helvetica, Arial, sans-serif" font-size="14" font-weight="600" fill="#33691E">ReLU</text>
<line x1="190.0" y1="291" x2="190.0" y2="307" stroke="#78909C" stroke-width="1.6"/>
<line x1="350.0" y1="291" x2="350.0" y2="307" stroke="#78909C" stroke-width="1.6"/>
<line x1="510.0" y1="291" x2="510.0" y2="307" stroke="#78909C" stroke-width="1.6"/>
<line x1="670.0" y1="291" x2="670.0" y2="307" stroke="#78909C" stroke-width="1.6"/>
<line x1="190.0" y1="307" x2="835.0" y2="307" stroke="#78909C" stroke-width="1.6"/>
<line x1="430" y1="307" x2="430" y2="333" stroke="#78909C" stroke-width="1.6" marker-end="url(#arrow)"/>
<g clip-path="url(#clip_7)">
<rect x="119.0" y="333" width="622" height="37" fill="#E1D5F0"/>
<rect x="119.0" y="370" width="622" height="37" fill="#D1C4E9"/>
</g>
<line x1="119.0" y1="370" x2="741.0" y2="370" stroke="rgba(0,0,0,0.18)" stroke-width="1"/>
<rect x="119.0" y="333" width="622" height="74" rx="8" ry="8" fill="none" stroke="#37474F" stroke-width="1.3" opacity="0.55"/>
<text x="430.0" y="356.5" text-anchor="middle" font-family="Segoe UI, Helvetica, Arial, sans-serif" font-size="15" font-weight="600" fill="#4A2E83">Concat</text>
<text x="430.0" y="393.5" text-anchor="middle" font-family="Segoe UI, Helvetica, Arial, sans-serif" font-size="15" font-weight="600" fill="#311B92">FCA layer</text>
<line x1="430" y1="407" x2="430" y2="429" stroke="#78909C" stroke-width="1.6" marker-end="url(#arrow)"/>
<g clip-path="url(#clip_8)">
<rect x="119.0" y="429" width="622" height="33" fill="#FFF3CD"/>
<rect x="119.0" y="462" width="622" height="33" fill="#DCEDC8"/>
<rect x="119.0" y="495" width="622" height="33" fill="#BBDEFB"/>
<rect x="119.0" y="528" width="622" height="33" fill="#FFF3CD"/>
<rect x="119.0" y="561" width="622" height="33" fill="#DCEDC8"/>
<rect x="119.0" y="594" width="622" height="33" fill="#BBDEFB"/>
</g>
<line x1="119.0" y1="462" x2="741.0" y2="462" stroke="rgba(0,0,0,0.18)" stroke-width="1"/>
<line x1="119.0" y1="495" x2="741.0" y2="495" stroke="rgba(0,0,0,0.18)" stroke-width="1"/>
<line x1="119.0" y1="528" x2="741.0" y2="528" stroke="rgba(0,0,0,0.18)" stroke-width="1"/>
<line x1="119.0" y1="561" x2="741.0" y2="561" stroke="rgba(0,0,0,0.18)" stroke-width="1"/>
<line x1="119.0" y1="594" x2="741.0" y2="594" stroke="rgba(0,0,0,0.18)" stroke-width="1"/>
<rect x="119.0" y="429" width="622" height="198" rx="8" ry="8" fill="none" stroke="#37474F" stroke-width="1.3" opacity="0.55"/>
<text x="430.0" y="450.5" text-anchor="middle" font-family="Segoe UI, Helvetica, Arial, sans-serif" font-size="14" font-weight="600" fill="#6B4F00">BN</text>
<text x="430.0" y="483.5" text-anchor="middle" font-family="Segoe UI, Helvetica, Arial, sans-serif" font-size="14" font-weight="600" fill="#33691E">ReLU</text>
<text x="430.0" y="516.5" text-anchor="middle" font-family="Segoe UI, Helvetica, Arial, sans-serif" font-size="14" font-weight="600" fill="#0D47A1">conv</text>
<text x="430.0" y="549.5" text-anchor="middle" font-family="Segoe UI, Helvetica, Arial, sans-serif" font-size="14" font-weight="600" fill="#6B4F00">BN</text>
<text x="430.0" y="582.5" text-anchor="middle" font-family="Segoe UI, Helvetica, Arial, sans-serif" font-size="14" font-weight="600" fill="#33691E">ReLU</text>
<text x="430.0" y="615.5" text-anchor="middle" font-family="Segoe UI, Helvetica, Arial, sans-serif" font-size="14" font-weight="600" fill="#0D47A1">conv</text>
<line x1="835.0" y1="307" x2="835.0" y2="447" stroke="#78909C" stroke-width="1.6" marker-end="url(#arrow)"/>
<g clip-path="url(#clip_9)">
<rect x="771.0" y="447" width="128" height="40" fill="#FFE0B2"/>
</g>
<rect x="771.0" y="447" width="128" height="40" rx="8" ry="8" fill="none" stroke="#37474F" stroke-width="1.3" opacity="0.55"/>
<text x="835.0" y="472.0" text-anchor="middle" font-family="Segoe UI, Helvetica, Arial, sans-serif" font-size="14.5" font-weight="600" fill="#7A4100">avg pool</text>
<line x1="430" y1="627" x2="430" y2="649" stroke="#78909C" stroke-width="1.6"/>
<line x1="835.0" y1="487" x2="835.0" y2="649" stroke="#78909C" stroke-width="1.6"/>
<line x1="430" y1="649" x2="835.0" y2="649" stroke="#78909C" stroke-width="1.6"/>
<rect x="87.0" y="162" width="844.0" height="503" rx="26" ry="26" fill="none" stroke="#90A4AE" stroke-width="2" stroke-dasharray="7,6"/>
<text x="73.0" y="246.5" text-anchor="end" font-family="Segoe UI, Helvetica, Arial, sans-serif" font-size="19" font-weight="800" fill="#37474F">ASPP</text>
<rect x="902.0" y="149.0" width="46" height="26" rx="13" fill="#ECEFF1" stroke="#90A4AE" stroke-width="1.6"/>
<text x="925.0" y="167.0" text-anchor="middle" font-family="Segoe UI, Helvetica, Arial, sans-serif" font-size="15" font-weight="800" fill="#455A64">× 2</text>
<line x1="430" y1="665" x2="430" y2="691" stroke="#78909C" stroke-width="1.6" marker-end="url(#arrow)"/>
<g clip-path="url(#clip_10)">
<rect x="320.0" y="691" width="220" height="36" fill="#FFF3CD"/>
<rect x="320.0" y="727" width="220" height="36" fill="#DCEDC8"/>
</g>
<line x1="320.0" y1="727" x2="540.0" y2="727" stroke="rgba(0,0,0,0.18)" stroke-width="1"/>
<rect x="320.0" y="691" width="220" height="72" rx="8" ry="8" fill="none" stroke="#37474F" stroke-width="1.3" opacity="0.55"/>
<text x="430.0" y="714.0" text-anchor="middle" font-family="Segoe UI, Helvetica, Arial, sans-serif" font-size="15" font-weight="600" fill="#6B4F00">BN</text>
<text x="430.0" y="750.0" text-anchor="middle" font-family="Segoe UI, Helvetica, Arial, sans-serif" font-size="15" font-weight="600" fill="#33691E">ReLU</text>
<line x1="430" y1="763" x2="430" y2="777" stroke="#78909C" stroke-width="1.6"/>
<line x1="190.0" y1="777" x2="670.0" y2="777" stroke="#78909C" stroke-width="1.6"/>
<line x1="190.0" y1="777" x2="190.0" y2="793" stroke="#78909C" stroke-width="1.6" marker-end="url(#arrow)"/>
<line x1="350.0" y1="777" x2="350.0" y2="793" stroke="#78909C" stroke-width="1.6" marker-end="url(#arrow)"/>
<line x1="510.0" y1="777" x2="510.0" y2="793" stroke="#78909C" stroke-width="1.6" marker-end="url(#arrow)"/>
<line x1="670.0" y1="777" x2="670.0" y2="793" stroke="#78909C" stroke-width="1.6" marker-end="url(#arrow)"/>
<g clip-path="url(#clip_11)">
<rect x="119.0" y="793" width="142" height="33" fill="#90CAF9"/>
<rect x="119.0" y="826" width="142" height="33" fill="#FFF3CD"/>
<rect x="119.0" y="859" width="142" height="33" fill="#DCEDC8"/>
</g>
<line x1="119.0" y1="826" x2="261.0" y2="826" stroke="rgba(0,0,0,0.18)" stroke-width="1"/>
<line x1="119.0" y1="859" x2="261.0" y2="859" stroke="rgba(0,0,0,0.18)" stroke-width="1"/>
<rect x="119.0" y="793" width="142" height="99" rx="8" ry="8" fill="none" stroke="#37474F" stroke-width="1.3" opacity="0.55"/>
<text x="190.0" y="814.5" text-anchor="middle" font-family="Segoe UI, Helvetica, Arial, sans-serif" font-size="14" font-weight="600" fill="#0D47A1">atrous(1)</text>
<text x="190.0" y="847.5" text-anchor="middle" font-family="Segoe UI, Helvetica, Arial, sans-serif" font-size="14" font-weight="600" fill="#6B4F00">BN</text>
<text x="190.0" y="880.5" text-anchor="middle" font-family="Segoe UI, Helvetica, Arial, sans-serif" font-size="14" font-weight="600" fill="#33691E">ReLU</text>
<g clip-path="url(#clip_12)">
<rect x="279.0" y="793" width="142" height="33" fill="#90CAF9"/>
<rect x="279.0" y="826" width="142" height="33" fill="#FFF3CD"/>
<rect x="279.0" y="859" width="142" height="33" fill="#DCEDC8"/>
</g>
<line x1="279.0" y1="826" x2="421.0" y2="826" stroke="rgba(0,0,0,0.18)" stroke-width="1"/>
<line x1="279.0" y1="859" x2="421.0" y2="859" stroke="rgba(0,0,0,0.18)" stroke-width="1"/>
<rect x="279.0" y="793" width="142" height="99" rx="8" ry="8" fill="none" stroke="#37474F" stroke-width="1.3" opacity="0.55"/>
<text x="350.0" y="814.5" text-anchor="middle" font-family="Segoe UI, Helvetica, Arial, sans-serif" font-size="14" font-weight="600" fill="#0D47A1">atrous(6)</text>
<text x="350.0" y="847.5" text-anchor="middle" font-family="Segoe UI, Helvetica, Arial, sans-serif" font-size="14" font-weight="600" fill="#6B4F00">BN</text>
<text x="350.0" y="880.5" text-anchor="middle" font-family="Segoe UI, Helvetica, Arial, sans-serif" font-size="14" font-weight="600" fill="#33691E">ReLU</text>
<g clip-path="url(#clip_13)">
<rect x="439.0" y="793" width="142" height="33" fill="#90CAF9"/>
<rect x="439.0" y="826" width="142" height="33" fill="#FFF3CD"/>
<rect x="439.0" y="859" width="142" height="33" fill="#DCEDC8"/>
</g>
<line x1="439.0" y1="826" x2="581.0" y2="826" stroke="rgba(0,0,0,0.18)" stroke-width="1"/>
<line x1="439.0" y1="859" x2="581.0" y2="859" stroke="rgba(0,0,0,0.18)" stroke-width="1"/>
<rect x="439.0" y="793" width="142" height="99" rx="8" ry="8" fill="none" stroke="#37474F" stroke-width="1.3" opacity="0.55"/>
<text x="510.0" y="814.5" text-anchor="middle" font-family="Segoe UI, Helvetica, Arial, sans-serif" font-size="14" font-weight="600" fill="#0D47A1">atrous(12)</text>
<text x="510.0" y="847.5" text-anchor="middle" font-family="Segoe UI, Helvetica, Arial, sans-serif" font-size="14" font-weight="600" fill="#6B4F00">BN</text>
<text x="510.0" y="880.5" text-anchor="middle" font-family="Segoe UI, Helvetica, Arial, sans-serif" font-size="14" font-weight="600" fill="#33691E">ReLU</text>
<g clip-path="url(#clip_14)">
<rect x="599.0" y="793" width="142" height="33" fill="#90CAF9"/>
<rect x="599.0" y="826" width="142" height="33" fill="#FFF3CD"/>
<rect x="599.0" y="859" width="142" height="33" fill="#DCEDC8"/>
</g>
<line x1="599.0" y1="826" x2="741.0" y2="826" stroke="rgba(0,0,0,0.18)" stroke-width="1"/>
<line x1="599.0" y1="859" x2="741.0" y2="859" stroke="rgba(0,0,0,0.18)" stroke-width="1"/>
<rect x="599.0" y="793" width="142" height="99" rx="8" ry="8" fill="none" stroke="#37474F" stroke-width="1.3" opacity="0.55"/>
<text x="670.0" y="814.5" text-anchor="middle" font-family="Segoe UI, Helvetica, Arial, sans-serif" font-size="14" font-weight="600" fill="#0D47A1">atrous(18)</text>
<text x="670.0" y="847.5" text-anchor="middle" font-family="Segoe UI, Helvetica, Arial, sans-serif" font-size="14" font-weight="600" fill="#6B4F00">BN</text>
<text x="670.0" y="880.5" text-anchor="middle" font-family="Segoe UI, Helvetica, Arial, sans-serif" font-size="14" font-weight="600" fill="#33691E">ReLU</text>
<line x1="190.0" y1="892" x2="190.0" y2="908" stroke="#78909C" stroke-width="1.6"/>
<line x1="350.0" y1="892" x2="350.0" y2="908" stroke="#78909C" stroke-width="1.6"/>
<line x1="510.0" y1="892" x2="510.0" y2="908" stroke="#78909C" stroke-width="1.6"/>
<line x1="670.0" y1="892" x2="670.0" y2="908" stroke="#78909C" stroke-width="1.6"/>
<line x1="190.0" y1="908" x2="670.0" y2="908" stroke="#78909C" stroke-width="1.6"/>
<line x1="430" y1="908" x2="430" y2="932" stroke="#78909C" stroke-width="1.6" marker-end="url(#arrow)"/>
<g clip-path="url(#clip_15)">
<rect x="119.0" y="932" width="622" height="36" fill="#E1D5F0"/>
<rect x="119.0" y="968" width="622" height="36" fill="#D1C4E9"/>
<rect x="119.0" y="1004" width="622" height="36" fill="#FFE0B2"/>
</g>
<line x1="119.0" y1="968" x2="741.0" y2="968" stroke="rgba(0,0,0,0.18)" stroke-width="1"/>
<line x1="119.0" y1="1004" x2="741.0" y2="1004" stroke="rgba(0,0,0,0.18)" stroke-width="1"/>
<rect x="119.0" y="932" width="622" height="108" rx="8" ry="8" fill="none" stroke="#37474F" stroke-width="1.3" opacity="0.55"/>
<text x="430.0" y="955.0" text-anchor="middle" font-family="Segoe UI, Helvetica, Arial, sans-serif" font-size="15" font-weight="600" fill="#4A2E83">Concat</text>
<text x="430.0" y="991.0" text-anchor="middle" font-family="Segoe UI, Helvetica, Arial, sans-serif" font-size="15" font-weight="600" fill="#311B92">FCA layer</text>
<text x="430.0" y="1027.0" text-anchor="middle" font-family="Segoe UI, Helvetica, Arial, sans-serif" font-size="15" font-weight="600" fill="#7A4100">GAP</text>
<rect x="61.0" y="10" width="896.0" height="1042" rx="20" ry="20" fill="none" stroke="#1976D2" stroke-width="2.2" stroke-dasharray="7,6"/>
<text x="79.0" y="1038" text-anchor="start" font-family="Segoe UI, Helvetica, Arial, sans-serif" font-size="17" font-weight="700" fill="#1976D2">Feature extractor</text>
<line x1="430" y1="1040" x2="430" y2="1090" stroke="#78909C" stroke-width="1.6" marker-end="url(#arrow)"/>
<rect x="335.0" y="1090" width="190" height="35" rx="8" ry="8" fill="#B2DFDB" stroke="#37474F" stroke-width="1.3" opacity="0.8"/>
<text x="430.0" y="1112.5" text-anchor="middle" font-family="Segoe UI, Helvetica, Arial, sans-serif" font-size="14" font-weight="600" fill="#004D40">FC1 (128)</text>
<line x1="430" y1="1125" x2="430" y2="1160" stroke="#78909C" stroke-width="1.6" marker-end="url(#arrow)"/>
<rect x="585.0" y="1115" width="150" height="35" rx="8" ry="8" fill="#ECEFF1" stroke="#37474F" stroke-width="1.3" opacity="0.8"/>
<text x="660.0" y="1137.5" text-anchor="middle" font-family="Segoe UI, Helvetica, Arial, sans-serif" font-size="13" font-weight="600" fill="#263238">R-R features (7-D)</text>
<path d="M 660,1150 L 660,1175 L 525,1175" fill="none" stroke="#78909C" stroke-width="1.6" marker-end="url(#arrow)"/>
<rect x="335.0" y="1160" width="190" height="30" rx="8" ry="8" fill="#D1C4E9" stroke="#37474F" stroke-width="1.3" opacity="0.8"/>
<text x="430.0" y="1180.0" text-anchor="middle" font-family="Segoe UI, Helvetica, Arial, sans-serif" font-size="14" font-weight="600" fill="#311B92">Concat</text>
<line x1="430" y1="1190" x2="430" y2="1205" stroke="#78909C" stroke-width="1.6" marker-end="url(#arrow)"/>
<rect x="335.0" y="1205" width="190" height="35" rx="8" ry="8" fill="#B2DFDB" stroke="#37474F" stroke-width="1.3" opacity="0.8"/>
<text x="430.0" y="1227.5" text-anchor="middle" font-family="Segoe UI, Helvetica, Arial, sans-serif" font-size="14" font-weight="600" fill="#004D40">FC2 (64)</text>
<line x1="430" y1="1240" x2="430" y2="1255" stroke="#78909C" stroke-width="1.6" marker-end="url(#arrow)"/>
<g clip-path="url(#clip_fc3_softmax)">
<rect x="335.0" y="1255" width="190" height="35" fill="#B2DFDB"/>
<rect x="335.0" y="1290" width="190" height="35" fill="#E0F2F1"/>
</g>
<line x1="335.0" y1="1290" x2="525.0" y2="1290" stroke="rgba(0,0,0,0.18)" stroke-width="1"/>
<rect x="335.0" y="1255" width="190" height="70" rx="8" ry="8" fill="none" stroke="#37474F" stroke-width="1.3" opacity="0.55"/>
<text x="430.0" y="1277.0" text-anchor="middle" font-family="Segoe UI, Helvetica, Arial, sans-serif" font-size="14" font-weight="600" fill="#004D40">FC3 (3)</text>
<text x="430.0" y="1312.0" text-anchor="middle" font-family="Segoe UI, Helvetica, Arial, sans-serif" font-size="14" font-weight="600" fill="#00695C">Softmax</text>
<rect x="61.0" y="1065" width="896.0" height="280" rx="20" ry="20" fill="none" stroke="#43A047" stroke-width="2.2" stroke-dasharray="7,6"/>
<text x="79.0" y="1330" text-anchor="start" font-family="Segoe UI, Helvetica, Arial, sans-serif" font-size="17" font-weight="700" fill="#43A047">Classifier</text>
<rect x="968.5" y="16" width="192" height="162" rx="10" fill="#FAFAFA" stroke="#CFD8DC" stroke-width="1"/>
<text x="984.5" y="40" text-anchor="start" font-family="Segoe UI, Helvetica, Arial, sans-serif" font-size="13.5" font-weight="700" fill="#37474F">Legend</text>
<rect x="984.5" y="48" width="18" height="14" rx="3" fill="#BBDEFB" stroke="#1565C0" stroke-width="1"/>
<text x="1008.5" y="59" text-anchor="start" font-family="Segoe UI, Helvetica, Arial, sans-serif" font-size="12" font-weight="500" fill="#37474F">Conv / Atrous conv</text>
<rect x="984.5" y="70" width="18" height="14" rx="3" fill="#FFF3CD" stroke="#D4A017" stroke-width="1"/>
<text x="1008.5" y="81" text-anchor="start" font-family="Segoe UI, Helvetica, Arial, sans-serif" font-size="12" font-weight="500" fill="#37474F">Batch Norm</text>
<rect x="984.5" y="92" width="18" height="14" rx="3" fill="#DCEDC8" stroke="#558B2F" stroke-width="1"/>
<text x="1008.5" y="103" text-anchor="start" font-family="Segoe UI, Helvetica, Arial, sans-serif" font-size="12" font-weight="500" fill="#37474F">ReLU</text>
<rect x="984.5" y="114" width="18" height="14" rx="3" fill="#D1C4E9" stroke="#5E35B1" stroke-width="1"/>
<text x="1008.5" y="125" text-anchor="start" font-family="Segoe UI, Helvetica, Arial, sans-serif" font-size="12" font-weight="500" fill="#37474F">Concat / FCA layer</text>
<rect x="984.5" y="136" width="18" height="14" rx="3" fill="#FFE0B2" stroke="#F57C00" stroke-width="1"/>
<text x="1008.5" y="147" text-anchor="start" font-family="Segoe UI, Helvetica, Arial, sans-serif" font-size="12" font-weight="500" fill="#37474F">Pooling (avg / GAP)</text>
<rect x="984.5" y="158" width="18" height="14" rx="3" fill="#B2DFDB" stroke="#00897B" stroke-width="1"/>
<text x="1008.5" y="169" text-anchor="start" font-family="Segoe UI, Helvetica, Arial, sans-serif" font-size="12" font-weight="500" fill="#37474F">FC / Softmax</text></svg>
